<?xml version="1.0" encoding="iso-8859-1"?>
<!-- Generator: Adobe Illustrator 17.1.0, SVG Export Plug-In . SVG Version: 6.00 Build 0)  -->
<!DOCTYPE svg PUBLIC "-//W3C//DTD SVG 1.1//EN" "http://www.w3.org/Graphics/SVG/1.1/DTD/svg11.dtd">
<svg version="1.1" id="Capa_1" xmlns="http://www.w3.org/2000/svg" xmlns:xlink="http://www.w3.org/1999/xlink" x="0px" y="0px"
	 viewBox="0 0 507.152 507.152" style="enable-background:new 0 0 507.152 507.152;" xml:space="preserve">
<g>
	<path d="M253.576,155.386c22.044,0,39.979-17.934,39.979-39.979c0-3.384-0.425-6.748-1.263-10
		c-1.102-4.278-5.464-6.853-9.743-5.751c-4.279,1.103-6.854,5.465-5.751,9.743c0.502,1.949,0.757,3.97,0.757,6.008
		c0,13.222-10.757,23.979-23.979,23.979s-23.979-10.757-23.979-23.979s10.757-23.979,23.979-23.979c2.049,0,4.08,0.257,6.037,0.764
		c4.275,1.106,8.642-1.46,9.751-5.737c1.108-4.277-1.46-8.643-5.737-9.751c-3.267-0.847-6.648-1.276-10.05-1.276
		c-22.044,0-39.979,17.934-39.979,39.979S231.532,155.386,253.576,155.386z"/>
	<path d="M197.042,171.942c1.562,1.562,3.609,2.343,5.657,2.343s4.095-0.781,5.657-2.343c3.125-3.124,3.125-8.189,0-11.313
		c-12.079-12.079-18.731-28.139-18.731-45.221s6.652-33.142,18.731-45.221c3.125-3.124,3.125-8.189,0-11.313
		c-3.123-3.125-8.188-3.124-11.313,0c-15.101,15.101-23.417,35.178-23.417,56.534C173.624,136.763,181.941,156.841,197.042,171.942z
		"/>
	<path d="M298.797,171.942c1.562,1.562,3.609,2.343,5.657,2.343s4.095-0.781,5.657-2.343c31.173-31.173,31.173-81.896,0-113.068
		c-3.124-3.124-8.189-3.124-11.313,0c-3.125,3.124-3.125,8.189,0,11.313c24.935,24.935,24.935,65.506,0,90.441
		C295.672,163.753,295.672,168.818,298.797,171.942z"/>
	<path d="M168.776,200.207c1.562,1.563,3.609,2.343,5.657,2.343c2.047,0,4.095-0.781,5.657-2.343c3.125-3.124,3.125-8.189,0-11.313
		c-40.52-40.521-40.52-106.452,0-146.972c3.125-3.124,3.125-8.189,0-11.313c-3.124-3.124-8.189-3.124-11.313,0
		C122.018,77.367,122.018,153.448,168.776,200.207z"/>
	<path d="M327.062,188.894c-3.125,3.124-3.125,8.189,0,11.313c1.562,1.562,3.609,2.343,5.657,2.343s4.095-0.781,5.657-2.343
		c46.759-46.759,46.759-122.84,0-169.599c-3.124-3.124-8.189-3.124-11.313,0c-3.125,3.124-3.125,8.189,0,11.313
		C367.582,82.442,367.582,148.373,327.062,188.894z"/>
	<path d="M146.168,230.816c2.047,0,4.095-0.781,5.657-2.343c3.125-3.124,3.125-8.189,0-11.313
		c-56.105-56.106-56.105-147.396,0-203.502c3.125-3.124,3.125-8.189,0-11.313c-3.124-3.124-8.189-3.124-11.313,0
		c-62.344,62.344-62.344,163.785,0,226.129C142.073,230.034,144.12,230.816,146.168,230.816z"/>
	<path d="M355.327,217.159c-3.125,3.124-3.125,8.189,0,11.313c1.562,1.562,3.609,2.343,5.657,2.343s4.095-0.781,5.657-2.343
		c62.344-62.344,62.344-163.785,0-226.129c-3.124-3.124-8.189-3.124-11.313,0c-3.125,3.124-3.125,8.189,0,11.313
		C411.432,69.762,411.432,161.053,355.327,217.159z"/>
	<path d="M396.589,502.826c0.086-0.166,0.159-0.335,0.232-0.505c0.028-0.066,0.062-0.129,0.088-0.196
		c0.069-0.171,0.125-0.345,0.181-0.52c0.023-0.072,0.051-0.142,0.072-0.215c0.045-0.156,0.08-0.313,0.115-0.471
		c0.022-0.098,0.049-0.195,0.068-0.294c0.024-0.129,0.038-0.258,0.056-0.387c0.018-0.131,0.039-0.262,0.051-0.394
		c0.009-0.099,0.009-0.198,0.014-0.297c0.008-0.163,0.018-0.325,0.016-0.488c-0.001-0.075-0.008-0.149-0.011-0.224
		c-0.007-0.184-0.015-0.368-0.035-0.552c-0.008-0.071-0.022-0.141-0.032-0.212c-0.025-0.183-0.05-0.366-0.088-0.549
		c-0.029-0.14-0.07-0.278-0.107-0.417c-0.029-0.11-0.051-0.22-0.085-0.329c-0.081-0.26-0.175-0.517-0.283-0.769L260.939,176.236
		c-0.036-0.085-0.081-0.164-0.12-0.247c-0.063-0.134-0.124-0.268-0.194-0.399c-0.061-0.114-0.127-0.222-0.193-0.331
		c-0.068-0.114-0.135-0.228-0.209-0.338c-0.075-0.113-0.156-0.221-0.236-0.329c-0.075-0.101-0.149-0.201-0.228-0.298
		c-0.086-0.105-0.177-0.206-0.268-0.306c-0.085-0.093-0.169-0.186-0.258-0.276c-0.094-0.094-0.192-0.183-0.29-0.271
		c-0.095-0.087-0.191-0.173-0.291-0.255c-0.102-0.084-0.208-0.162-0.314-0.241c-0.103-0.076-0.205-0.153-0.312-0.225
		c-0.116-0.078-0.236-0.148-0.356-0.22c-0.104-0.062-0.207-0.125-0.314-0.183c-0.136-0.073-0.275-0.137-0.415-0.202
		c-0.08-0.037-0.155-0.08-0.236-0.115c-0.021-0.009-0.044-0.015-0.065-0.024c-0.146-0.061-0.296-0.111-0.446-0.163
		c-0.102-0.035-0.203-0.076-0.306-0.107c-0.139-0.042-0.28-0.073-0.421-0.107c-0.115-0.028-0.23-0.062-0.345-0.085
		c-0.131-0.026-0.264-0.041-0.396-0.06c-0.125-0.018-0.249-0.042-0.374-0.054c-0.146-0.015-0.294-0.016-0.442-0.023
		c-0.11-0.005-0.22-0.015-0.33-0.015c-0.179,0-0.358,0.013-0.537,0.025c-0.078,0.005-0.156,0.004-0.234,0.012
		c-0.171,0.017-0.342,0.047-0.513,0.074c-0.086,0.014-0.172,0.022-0.258,0.039c-0.141,0.028-0.281,0.067-0.421,0.103
		c-0.115,0.029-0.232,0.054-0.346,0.089c-0.117,0.035-0.233,0.081-0.349,0.122c-0.135,0.048-0.271,0.093-0.403,0.148
		c-0.024,0.01-0.048,0.016-0.072,0.026c-0.089,0.038-0.172,0.085-0.259,0.126c-0.13,0.061-0.259,0.12-0.386,0.187
		c-0.116,0.062-0.226,0.13-0.337,0.197c-0.112,0.067-0.224,0.133-0.333,0.205c-0.113,0.076-0.222,0.156-0.33,0.237
		c-0.101,0.075-0.201,0.149-0.298,0.228c-0.104,0.086-0.204,0.176-0.303,0.266c-0.094,0.085-0.188,0.171-0.279,0.261
		c-0.092,0.092-0.18,0.188-0.267,0.285c-0.088,0.097-0.176,0.194-0.26,0.296c-0.082,0.1-0.158,0.203-0.234,0.306
		c-0.079,0.106-0.157,0.211-0.231,0.322c-0.075,0.112-0.143,0.228-0.213,0.344c-0.064,0.108-0.13,0.214-0.189,0.326
		c-0.07,0.131-0.132,0.267-0.195,0.402c-0.039,0.083-0.083,0.161-0.119,0.246L110.31,496.009c-0.107,0.252-0.202,0.509-0.283,0.769
		c-0.034,0.109-0.056,0.219-0.085,0.329c-0.036,0.139-0.078,0.277-0.107,0.417c-0.038,0.183-0.063,0.365-0.088,0.549
		c-0.01,0.071-0.024,0.141-0.032,0.212c-0.02,0.185-0.028,0.368-0.035,0.552c-0.003,0.075-0.01,0.149-0.011,0.224
		c-0.002,0.163,0.008,0.325,0.016,0.488c0.005,0.099,0.005,0.198,0.014,0.297c0.012,0.132,0.033,0.263,0.051,0.394
		c0.018,0.129,0.032,0.258,0.056,0.387c0.019,0.099,0.045,0.196,0.068,0.294c0.036,0.157,0.07,0.315,0.115,0.471
		c0.021,0.073,0.049,0.143,0.072,0.215c0.056,0.174,0.113,0.349,0.181,0.52c0.027,0.066,0.06,0.13,0.088,0.196
		c0.073,0.17,0.146,0.34,0.232,0.505c0.064,0.124,0.138,0.241,0.208,0.362c0.06,0.102,0.113,0.205,0.177,0.305
		c0.301,0.467,0.656,0.902,1.053,1.301c0.061,0.061,0.125,0.116,0.187,0.175c0.143,0.135,0.289,0.266,0.443,0.391
		c0.09,0.073,0.182,0.141,0.274,0.21c0.13,0.096,0.262,0.189,0.399,0.278c0.113,0.073,0.227,0.144,0.342,0.212
		c0.123,0.071,0.248,0.138,0.376,0.203c0.13,0.066,0.26,0.132,0.392,0.191c0.042,0.019,0.081,0.042,0.124,0.06
		c0.09,0.038,0.182,0.065,0.272,0.1c0.128,0.049,0.255,0.099,0.386,0.142c0.166,0.054,0.332,0.097,0.499,0.14
		c0.1,0.025,0.198,0.055,0.299,0.076c0.224,0.048,0.449,0.083,0.675,0.112c0.049,0.006,0.097,0.017,0.146,0.022
		c0.283,0.03,0.567,0.048,0.849,0.048c0.012,0,0.023-0.002,0.035-0.002c0.343-0.001,0.686-0.03,1.027-0.075
		c0.048-0.006,0.097-0.01,0.145-0.018c0.339-0.051,0.675-0.127,1.008-0.223c0.045-0.013,0.089-0.026,0.133-0.04
		c0.333-0.102,0.662-0.224,0.983-0.371c0.027-0.012,0.053-0.027,0.08-0.04c0.302-0.142,0.597-0.304,0.883-0.487
		c0.032-0.02,0.065-0.038,0.096-0.058c0.208-0.137,0.412-0.282,0.61-0.441l130.911-104.729l130.911,104.729
		c0.198,0.159,0.403,0.305,0.611,0.442c0.03,0.02,0.062,0.037,0.093,0.056c0.289,0.184,0.586,0.347,0.89,0.491
		c0.025,0.012,0.049,0.025,0.074,0.037c0.323,0.148,0.653,0.27,0.987,0.373c0.043,0.013,0.086,0.026,0.129,0.039
		c0.333,0.096,0.67,0.172,1.01,0.223c0.047,0.007,0.095,0.011,0.143,0.018c0.342,0.045,0.685,0.074,1.028,0.075
		c0.012,0,0.023,0.002,0.035,0.002c0.282,0,0.565-0.018,0.848-0.048c0.051-0.005,0.102-0.017,0.153-0.023
		c0.222-0.028,0.445-0.063,0.666-0.11c0.104-0.022,0.206-0.052,0.309-0.079c0.163-0.042,0.326-0.084,0.488-0.137
		c0.132-0.042,0.261-0.093,0.391-0.143c0.09-0.034,0.181-0.061,0.27-0.099c0.043-0.018,0.082-0.041,0.124-0.06
		c0.133-0.059,0.262-0.124,0.392-0.191c0.127-0.065,0.253-0.132,0.376-0.203c0.116-0.067,0.229-0.138,0.342-0.212
		c0.137-0.089,0.269-0.182,0.399-0.278c0.092-0.069,0.184-0.137,0.274-0.21c0.154-0.125,0.3-0.256,0.443-0.391
		c0.062-0.059,0.126-0.114,0.187-0.175c0.397-0.399,0.752-0.834,1.053-1.301c0.064-0.099,0.118-0.203,0.177-0.305
		C396.451,503.068,396.525,502.95,396.589,502.826z M196.372,334.415l57.204-134.597l57.204,134.597l-38.217,30.574
		c-3.45,2.76-4.009,7.794-1.25,11.245c1.58,1.975,3.905,3.003,6.252,3.003c1.752,0,3.518-0.574,4.993-1.753l34.721-27.777
		l52.438,123.385L196.372,334.415z M137.435,473.09l52.438-123.385l50.896,40.717L137.435,473.09z"/>
</g>
<g>
</g>
<g>
</g>
<g>
</g>
<g>
</g>
<g>
</g>
<g>
</g>
<g>
</g>
<g>
</g>
<g>
</g>
<g>
</g>
<g>
</g>
<g>
</g>
<g>
</g>
<g>
</g>
<g>
</g>
</svg>
