<?xml version="1.0" encoding="iso-8859-1"?>
<!-- Generator: Adobe Illustrator 18.0.0, SVG Export Plug-In . SVG Version: 6.00 Build 0)  -->
<!DOCTYPE svg PUBLIC "-//W3C//DTD SVG 1.1//EN" "http://www.w3.org/Graphics/SVG/1.1/DTD/svg11.dtd">
<svg version="1.1" id="Capa_1" xmlns="http://www.w3.org/2000/svg" xmlns:xlink="http://www.w3.org/1999/xlink" x="0px" y="0px"
	 viewBox="0 0 279.28 279.28" style="enable-background:new 0 0 279.28 279.28;" xml:space="preserve">
<g>
	<path d="M58.151,14.143L44.008,0c-52.731,52.732-52.731,138.532,0,191.265l14.142-14.143
		C13.217,132.189,13.217,59.076,58.151,14.143z"/>
	<path d="M235.272,0l-14.143,14.143c44.934,44.934,44.934,118.046,0,162.98l14.143,14.143C288.003,138.532,288.003,52.732,235.272,0
		z"/>
	<path d="M63.289,95.633c0-20.395,7.942-39.567,22.363-53.988L71.509,27.502C53.311,45.7,43.289,69.896,43.289,95.633
		c0,25.736,10.022,49.932,28.221,68.131l14.143-14.143C71.231,135.2,63.289,116.026,63.289,95.633z"/>
	<path d="M207.771,27.502l-14.143,14.143c29.77,29.769,29.77,78.207,0,107.976l14.143,14.143
		C245.337,126.195,245.337,65.069,207.771,27.502z"/>
	<path d="M100.977,134.295l14.143-14.143c-13.521-13.521-13.521-35.52,0-49.04L100.977,56.97
		C79.659,78.288,79.659,112.977,100.977,134.295z"/>
	<path d="M178.303,134.295c21.318-21.318,21.318-56.007,0-77.325l-14.143,14.142c13.521,13.521,13.521,35.52,0,49.04
		L178.303,134.295z"/>
	<circle cx="139.64" cy="95.632" r="20.708"/>
	<polygon points="85.078,279.28 194.203,279.28 139.64,127.056 	"/>
</g>
<g>
</g>
<g>
</g>
<g>
</g>
<g>
</g>
<g>
</g>
<g>
</g>
<g>
</g>
<g>
</g>
<g>
</g>
<g>
</g>
<g>
</g>
<g>
</g>
<g>
</g>
<g>
</g>
<g>
</g>
</svg>
