<?xml version="1.0" encoding="iso-8859-1"?>
<!-- Generator: Adobe Illustrator 17.1.0, SVG Export Plug-In . SVG Version: 6.00 Build 0)  -->
<!DOCTYPE svg PUBLIC "-//W3C//DTD SVG 1.1//EN" "http://www.w3.org/Graphics/SVG/1.1/DTD/svg11.dtd">
<svg version="1.1" id="Capa_1" xmlns="http://www.w3.org/2000/svg" xmlns:xlink="http://www.w3.org/1999/xlink" x="0px" y="0px"
	 viewBox="0 0 477 477" style="enable-background:new 0 0 477 477;" xml:space="preserve">
<g>
	<path d="M189.99,192.757c3.646,1.968,8.195,0.605,10.162-3.04c1.967-3.646,0.606-8.195-3.04-10.162
		C168.669,164.211,151,134.685,151,102.5c0-48.248,39.252-87.5,87.5-87.5S326,54.252,326,102.5
		c0,32.186-17.669,61.711-46.112,77.056c-3.646,1.966-5.006,6.516-3.04,10.162c1.355,2.513,3.939,3.94,6.607,3.94
		c1.202,0,2.422-0.29,3.554-0.901C320.312,174.792,341,140.207,341,102.5C341,45.981,295.019,0,238.5,0S136,45.981,136,102.5
		C136,140.207,156.688,174.791,189.99,192.757z"/>
	<path d="M265.854,141.301c-3.382,2.392-4.184,7.073-1.792,10.454c1.461,2.066,3.777,3.169,6.129,3.169
		c1.498,0,3.009-0.447,4.325-1.377C291.099,141.816,301,122.733,301,102.5c0-34.462-28.038-62.5-62.5-62.5S176,68.038,176,102.5
		c0,20.233,9.901,39.316,26.484,51.047c3.38,2.393,8.062,1.59,10.454-1.792c2.392-3.381,1.59-8.062-1.792-10.454
		C198.531,132.378,191,117.873,191,102.5c0-26.191,21.309-47.5,47.5-47.5S286,76.309,286,102.5
		C286,117.873,278.469,132.378,265.854,141.301z"/>
	<path d="M326.061,380.031c-0.007-0.021-0.015-0.042-0.022-0.064L246,146.25v-22.54c8.729-3.096,15-11.432,15-21.21
		c0-12.407-10.093-22.5-22.5-22.5S216,90.093,216,102.5c0,9.778,6.271,18.114,15,21.21v22.542l-28.914,84.428
		c-0.022,0.065-0.046,0.129-0.066,0.194l-24.912,72.742c-0.033,0.095-0.069,0.189-0.097,0.284l-39.166,114.364
		c-1.342,3.919,0.747,8.184,4.665,9.526c0.805,0.275,1.625,0.406,2.431,0.406c3.117,0,6.029-1.958,7.095-5.072l10.164-29.678
		l68.8,39.875V469.5c0,4.142,3.358,7.5,7.5,7.5s7.5-3.358,7.5-7.5v-36.178l68.8-39.876l10.156,29.657
		c1.343,3.918,5.606,6.009,9.526,4.665c3.918-1.342,6.007-5.606,4.665-9.525L326.061,380.031z M212.72,245.925L231,261.468v67.753
		l-37.867-26.102L212.72,245.925z M246,261.468l18.28-15.542l19.587,57.194L246,329.221V261.468z M259.057,230.676L246,241.778
		v-49.23L259.057,230.676z M238.5,95c4.136,0,7.5,3.364,7.5,7.5s-3.364,7.5-7.5,7.5s-7.5-3.364-7.5-7.5S234.364,95,238.5,95z
		 M231,241.778l-13.057-11.102L231,192.548V241.778z M167.154,378.98l20.932-61.122L231,347.439v68.545L167.154,378.98z
		 M246,415.985v-68.545l42.914-29.581l20.932,61.121L246,415.985z"/>
</g>
<g>
</g>
<g>
</g>
<g>
</g>
<g>
</g>
<g>
</g>
<g>
</g>
<g>
</g>
<g>
</g>
<g>
</g>
<g>
</g>
<g>
</g>
<g>
</g>
<g>
</g>
<g>
</g>
<g>
</g>
</svg>
