<?xml version="1.0" encoding="iso-8859-1"?>
<!-- Generator: Adobe Illustrator 18.0.0, SVG Export Plug-In . SVG Version: 6.00 Build 0)  -->
<!DOCTYPE svg PUBLIC "-//W3C//DTD SVG 1.1//EN" "http://www.w3.org/Graphics/SVG/1.1/DTD/svg11.dtd">
<svg version="1.1" id="Capa_1" xmlns="http://www.w3.org/2000/svg" xmlns:xlink="http://www.w3.org/1999/xlink" x="0px" y="0px"
	 viewBox="0 0 225 225" style="enable-background:new 0 0 225 225;" xml:space="preserve">
<g>
	<path style="fill:#1D1D1B;" d="M145.698,77.069l-30.489-31.933c-2.118-2.217-5.371-2.923-8.215-1.783
		c-2.845,1.14-4.71,3.897-4.71,6.962v44.426l-12.29-12.124c-2.949-2.909-7.698-2.876-10.605,0.072
		c-2.909,2.949-2.877,7.697,0.071,10.606L98.927,112.5L79.46,131.704c-2.949,2.909-2.981,7.658-0.072,10.606
		c2.907,2.949,7.656,2.981,10.605,0.072l12.29-12.124v44.426c0,3.065,1.865,5.822,4.71,6.962c0.905,0.362,1.851,0.539,2.788,0.539
		c2.011,0,3.983-0.81,5.427-2.321l30.489-31.933c2.827-2.961,2.757-7.643-0.158-10.519L120.286,112.5l25.254-24.912
		C148.455,84.712,148.525,80.031,145.698,77.069z M129.753,142.909l-12.47,13.06v-25.36L129.753,142.909z M117.284,94.392v-25.36
		l12.47,13.06L117.284,94.392z"/>
	<path style="fill:#1D1D1B;" d="M168.325,0H56.676C37.892,0,22.611,15.281,22.611,34.065v156.87
		c0,18.784,15.281,34.065,34.065,34.065h111.648c18.783,0,34.064-15.281,34.064-34.065V34.065C202.389,15.281,187.108,0,168.325,0z
		 M187.389,190.935c0,10.512-8.553,19.065-19.064,19.065H56.676c-10.513,0-19.065-8.553-19.065-19.065V34.065
		C37.611,23.553,46.164,15,56.676,15h111.648c10.512,0,19.064,8.553,19.064,19.065V190.935z"/>
</g>
<g>
</g>
<g>
</g>
<g>
</g>
<g>
</g>
<g>
</g>
<g>
</g>
<g>
</g>
<g>
</g>
<g>
</g>
<g>
</g>
<g>
</g>
<g>
</g>
<g>
</g>
<g>
</g>
<g>
</g>
</svg>
