<?xml version='1.0' encoding='utf-8'?>
<!DOCTYPE svg PUBLIC '-//W3C//DTD SVG 1.1//EN' 'http://www.w3.org/Graphics/SVG/1.1/DTD/svg11.dtd'>
<svg version="1.1" xmlns="http://www.w3.org/2000/svg" viewBox="0 0 512 512" xmlns:xlink="http://www.w3.org/1999/xlink" enable-background="new 0 0 512 512">
  <g>
    <g>
      <path d="m382.3,285.8h-250.6c-43.5,0-78.9-31.7-78.9-70.6 0-18.4 6.7-41.2 59.1-53.3 7.5-1.7 13.4-7.5 15.2-15 13.4-54.5 68-94 129.9-94 61.8,0 116.4,39.5 129.9,94 1.8,7.5 7.7,13.3 15.2,15 52.4,12.2 59.1,34.9 59.1,53.3 0,39-35.4,70.6-78.9,70.6zm40.8-160.6c-22.4-67.3-88.9-113.2-166.1-113.2s-143.7,45.9-166.1,113.2c-64.9,19-79,59-79,90.1 0,61.5 53.7,111.5 119.7,111.5h250.6c66,0 119.7-50 119.7-111.5 0.1-31.2-13.9-71.1-78.8-90.1z"/>
      <path d="m344.2,426.1c-48.1,46.8-126.4,46.8-174.5,0-8.1-7.9-21-7.7-28.9,0.4-7.9,8.1-7.7,21 0.4,28.9 32,31.1 73.9,46.6 115.8,46.6 41.9,0 83.8-15.5 115.7-46.6 8.1-7.9 8.2-20.8 0.4-28.9-7.8-8.1-20.8-8.3-28.9-0.4z"/>
      <path d="m316.9,401c8.1-7.9 8.2-20.8 0.4-28.9-7.9-8.1-20.8-8.3-28.9-0.4-17.3,16.9-45.5,16.8-62.7,0-8.1-7.9-21-7.7-28.9,0.4-7.9,8.1-7.7,21 0.4,28.9 16.5,16.1 38.2,24.1 59.9,24.1 21.6,0 43.3-8.1 59.8-24.1z"/>
    </g>
  </g>
</svg>
