<?xml version='1.0' encoding='utf-8'?>
<!DOCTYPE svg PUBLIC '-//W3C//DTD SVG 1.1//EN' 'http://www.w3.org/Graphics/SVG/1.1/DTD/svg11.dtd'>
<svg version="1.1" xmlns="http://www.w3.org/2000/svg" viewBox="0 0 512 512" xmlns:xlink="http://www.w3.org/1999/xlink" enable-background="new 0 0 512 512">
  <g>
    <g>
      <path d="m257,461.2c-11.3,0-20.4,9.1-20.4,20.4 0,11.3 9.1,20.4 20.4,20.4 11.3,0 20.4-9.1 20.4-20.4 0-11.3-9.1-20.4-20.4-20.4z"/>
      <path d="m257,299.9c-43.7,0-83.3,17.7-111.9,46.3-8.1,8.1-8.1,21.1 0,29.2 8.1,8 21,7.9 29.1-0.2 21.3-21.2 50.6-34.3 82.9-34.3 32.3,0 61.6,13.1 82.9,34.3 8.1,8 21,8.2 29.1,0.2 8.1-8 8-21.1 0-29.2-28.8-28.6-68.4-46.3-112.1-46.3z"/>
      <g>
        <path d="m257,374.3c-23.1,0-44.1,9.3-59.3,24.4-8.1,8-8,21.1 0.1,29.1 8,8 20.9,7.9 28.9,0 7.8-7.7 18.5-12.4 30.3-12.4 11.8,0 22.5,4.8 30.3,12.4 8,7.9 20.9,8 28.9,0 8.1-8 8.1-21.1 0.1-29.1-15.2-15.1-36.2-24.4-59.3-24.4z"/>
        <path d="m441.3,164.1c-4.4-51.8-47.8-92.4-100.7-92.4-15.1,0-29.5,3.3-42.4,9.3-26-41.1-71.7-68.5-123.8-69-81.6-0.8-149.6,66.5-149.6,148.1-1.06581e-14,12.7 1.6,25.1 4.6,36.9-11,15.1-17.4,33.7-17.4,53.8 0,50 39.8,90.7 89.4,92.2h12.2c11.3,0 20.5-9.2 20.5-20.5v-0.1c0-11.3-9.2-20.5-20.5-20.5h-12.2c-27.4-1.5-48.9-24.8-48.3-52.3 0.2-10.4 3.6-20.4 9.7-28.8 7.1-9.8 9.4-22.3 6.4-34.1-2.2-8.6-3.3-17.6-3.3-26.6 0-59.1 48-107.1 107.1-107.1 36.9,0 70.8,18.7 90.6,49.9 11,17.4 33.2,23.9 51.9,15.3 7.9-3.7 16.4-5.5 25.2-5.5 44.3,0 58.6,40 59.8,54.9 1.4,15.9 11.8,29.6 26.9,35.1 20.2,7.3 33.7,26.7 33.7,48.2 0,28.2-23,51.2-51.2,51.2h-10.7c-11.3,0-20.5,9.2-20.5,20.5 0,11.3 9.2,20.5 20.5,20.5h9.8c51,0 93.4-41.8 93.1-92.8-0.3-39.7-25.6-73.4-60.8-86.2z"/>
      </g>
    </g>
  </g>
</svg>
