<?xml version="1.0" encoding="iso-8859-1"?>
<!-- Generator: Adobe Illustrator 18.1.1, SVG Export Plug-In . SVG Version: 6.00 Build 0)  -->
<svg version="1.1" id="Capa_1" xmlns="http://www.w3.org/2000/svg" xmlns:xlink="http://www.w3.org/1999/xlink" x="0px" y="0px"
	 viewBox="0 0 327.252 327.252" style="enable-background:new 0 0 327.252 327.252;" xml:space="preserve">
<g>
	<g>
		<path style="fill:#010002;" d="M289.179,173.596h-35.354v-3.28h39.885c9.013,0,16.317-8.305,16.317-18.553V22.635
			c0-10.247-7.305-18.553-16.317-18.553H34.446c-9.013,0-16.317,8.305-16.317,18.553v129.129c0,10.247,7.305,18.553,16.317,18.553
			H69.8v3.28H38.073c-11.835,0-21.495,9.502-21.751,21.272L0.076,292.363L0,293.255c0,9.013,1.866,29.915,10.878,29.915h305.496
			c9.007,0,10.873-20.875,10.878-29.893c0-0.005,0-0.011,0-0.022l-16.323-98.387C310.674,183.098,301.014,173.596,289.179,173.596z
			 M41.484,143.616V26.638h247.69v116.978C289.173,143.616,41.484,143.616,41.484,143.616z M305.496,301.414H21.756
			c-3.209,0-10.595-0.767-10.873-7.756l14.435-86.617l1.8-10.797l0.076-0.892c0-5.999,4.879-10.878,10.878-10.878h251.105
			c5.999,0,10.878,4.879,10.878,10.878l1.958,11.792l14.354,86.514C316.091,300.647,308.705,301.414,305.496,301.414z"/>
		<path style="fill:#010002;" d="M196.399,268.225h-4.09l2.915,17.78l-63.218-0.033l2.665-17.748h-3.818h-4.134l-3.024,18.101
			l-0.054,0.669c0,4.155,3.28,7.163,7.789,7.163h64.393c4.509,0,7.783-3.013,7.783-7.163l-3.084-18.77H196.399z"/>
		<path style="fill:#010002;" d="M270.887,199.698c0-1.507-3.046-3.791-7.626-3.791H62.179c-4.422,0-7.626,2.263-7.626,3.791
			l-0.054,0.745l-0.049,0.348l-7.495,54.45c0.31,0.794,2.964,2.11,7.593,2.11h78.769h60.618h76.952c4.634,0,7.288-1.311,7.593-2.11
			l-7.446-54.45L270.887,199.698z"/>
	</g>
</g>
<g>
</g>
<g>
</g>
<g>
</g>
<g>
</g>
<g>
</g>
<g>
</g>
<g>
</g>
<g>
</g>
<g>
</g>
<g>
</g>
<g>
</g>
<g>
</g>
<g>
</g>
<g>
</g>
<g>
</g>
</svg>
