<?xml version="1.0" encoding="iso-8859-1"?>
<!-- Generator: Adobe Illustrator 16.0.0, SVG Export Plug-In . SVG Version: 6.00 Build 0)  -->
<!DOCTYPE svg PUBLIC "-//W3C//DTD SVG 1.1//EN" "http://www.w3.org/Graphics/SVG/1.1/DTD/svg11.dtd">
<svg version="1.1" id="Capa_1" xmlns="http://www.w3.org/2000/svg" xmlns:xlink="http://www.w3.org/1999/xlink" x="0px" y="0px"
	 width="500.275px" height="500.275px" viewBox="0 0 500.275 500.275" style="enable-background:new 0 0 500.275 500.275;"
	 xml:space="preserve">
<g>
	<path d="M278.593,260.765c0-5.875,4.758-10.627,10.627-10.627s10.634,4.752,10.634,10.627c0,5.876-4.765,10.628-10.634,10.628
		S278.593,266.641,278.593,260.765z M500.275,191.361v117.553c0,4.149-3.369,7.507-7.507,7.507H7.507
		c-4.146,0-7.507-3.357-7.507-7.507V191.361c0-4.152,3.366-7.507,7.507-7.507h80.047v41.898h15.004v-41.898h26.885v41.898h15.004
		v-41.898h28.768v41.898h15.004v-41.898h304.537C496.906,183.854,500.275,187.214,500.275,191.361z M331.748,226.376h100.985
		v-18.775H331.748V226.376z M435.239,243.576H70.043v33.763h365.19v-33.763H435.239z M342.375,271.393
		c5.87,0,10.634-4.752,10.634-10.628c0-5.875-4.764-10.627-10.634-10.627c-5.875,0-10.627,4.752-10.627,10.627
		C331.748,266.641,336.5,271.393,342.375,271.393z M398.657,271.393c5.87,0,10.628-4.752,10.628-10.628
		c0-5.875-4.758-10.627-10.628-10.627c-5.875,0-10.633,4.752-10.633,10.627C388.024,266.641,392.782,271.393,398.657,271.393z"/>
</g>
<g>
</g>
<g>
</g>
<g>
</g>
<g>
</g>
<g>
</g>
<g>
</g>
<g>
</g>
<g>
</g>
<g>
</g>
<g>
</g>
<g>
</g>
<g>
</g>
<g>
</g>
<g>
</g>
<g>
</g>
</svg>
