<?xml version="1.0" encoding="iso-8859-1"?>
<!-- Generator: Adobe Illustrator 18.1.1, SVG Export Plug-In . SVG Version: 6.00 Build 0)  -->
<svg version="1.1" id="Capa_1" xmlns="http://www.w3.org/2000/svg" xmlns:xlink="http://www.w3.org/1999/xlink" x="0px" y="0px"
	 viewBox="0 0 65.18 65.18" style="enable-background:new 0 0 65.18 65.18;" xml:space="preserve">
<g>
	<g>
		<g>
			<path style="fill:#010002;" d="M55.956,56.575c-1.066,0.229-2.165,0.372-3.296,0.372H12.52c-1.131,0-2.233-0.143-3.3-0.372
				c-2.154,1.185-3.393,2.548-3.393,3.998c0,4.545,53.522,4.545,53.522,0C59.349,59.123,58.111,57.756,55.956,56.575z"/>
		</g>
		<g>
			<path style="fill:#010002;" d="M62.47,14.548c-0.494-7.34-6.914-13.349-14.269-13.349H16.979
				c-7.358,0-13.782,6.009-14.269,13.349L0.03,41.372c-0.49,7.34,5.132,13.346,12.49,13.346h40.14
				c7.358,0,12.977-6.009,12.49-13.346L62.47,14.548z M17.852,22.382h-4.459v-1.117h4.459V22.382z M15.623,18.481
				c-1.231,0-2.23-0.998-2.23-2.23c0-1.235,0.998-2.23,2.23-2.23s2.23,0.995,2.23,2.23C17.852,17.483,16.854,18.481,15.623,18.481z
				 M26.334,22.382h-4.459v-1.117h4.459V22.382z M24.105,18.481c-1.231,0-2.23-0.998-2.23-2.23c0-1.235,0.998-2.23,2.23-2.23
				s2.23,0.995,2.23,2.23C26.334,17.483,25.336,18.481,24.105,18.481z M34.816,22.382h-4.459v-1.117h4.459V22.382z M32.587,18.481
				c-1.231,0-2.23-0.998-2.23-2.23c0-1.235,0.998-2.23,2.23-2.23c1.231,0,2.23,0.995,2.23,2.23
				C34.816,17.483,33.818,18.481,32.587,18.481z M43.298,22.382h-4.459v-1.117h4.459V22.382z M41.068,18.481
				c-1.231,0-2.23-0.998-2.23-2.23c0-1.235,0.998-2.23,2.23-2.23s2.23,0.995,2.23,2.23C43.298,17.483,42.3,18.481,41.068,18.481z
				 M51.78,22.382h-4.459v-1.117h4.459V22.382z M49.55,18.481c-1.231,0-2.23-0.998-2.23-2.23c0-1.235,0.998-2.23,2.23-2.23
				s2.23,0.995,2.23,2.23C51.78,17.483,50.781,18.481,49.55,18.481z"/>
		</g>
	</g>
</g>
<g>
</g>
<g>
</g>
<g>
</g>
<g>
</g>
<g>
</g>
<g>
</g>
<g>
</g>
<g>
</g>
<g>
</g>
<g>
</g>
<g>
</g>
<g>
</g>
<g>
</g>
<g>
</g>
<g>
</g>
</svg>
