<?xml version="1.0" encoding="iso-8859-1"?>
<!-- Generator: Adobe Illustrator 16.0.0, SVG Export Plug-In . SVG Version: 6.00 Build 0)  -->
<!DOCTYPE svg PUBLIC "-//W3C//DTD SVG 1.1//EN" "http://www.w3.org/Graphics/SVG/1.1/DTD/svg11.dtd">
<svg version="1.1" id="Capa_1" xmlns="http://www.w3.org/2000/svg" xmlns:xlink="http://www.w3.org/1999/xlink" x="0px" y="0px"
	 width="570.713px" height="570.713px" viewBox="0 0 570.713 570.713" style="enable-background:new 0 0 570.713 570.713;"
	 xml:space="preserve">
<g>
	<g>
		<g>
			<path d="M330.846,116.344c-7.433,7.432-7.433,19.467,0,26.899c7.431,7.434,19.471,7.434,26.901,0
				c14.963-14.954,34.859-23.203,56.021-23.203c21.16,0,41.058,8.25,56.013,23.203c3.715,3.715,8.584,5.573,13.452,5.573
				c4.864,0,9.733-1.858,13.448-5.573c7.433-7.432,7.433-19.468,0-26.899c-22.136-22.146-51.592-34.352-82.913-34.352
				C382.435,81.992,352.991,94.198,330.846,116.344z"/>
			<path d="M288.228,91.747c4.867,0,9.735-1.858,13.45-5.573c29.938-29.929,69.739-46.426,112.09-46.426
				c42.349,0,82.158,16.477,112.091,46.426c7.432,7.434,19.47,7.434,26.9,0c7.433-7.432,7.433-19.47,0-26.901
				C515.648,22.155,466.285,1.7,413.768,1.7c-52.512,0-101.871,20.453-138.992,57.573c-7.432,7.432-7.432,19.47,0,26.901
				C278.495,89.889,283.36,91.747,288.228,91.747z"/>
			<path d="M499.972,224.207h-57.667v-33.703c0-15.752-12.771-28.533-28.535-28.533s-28.535,12.783-28.535,28.533v33.703H70.745
				C31.677,224.207,0,255.88,0,294.95v203.316c0,39.067,31.675,70.746,70.745,70.746H499.97c39.067,0,70.743-31.677,70.743-70.746
				V294.95C570.715,255.882,539.039,224.207,499.972,224.207z M88.86,443.296c-5.008-10.014-8.331-20.881-9.837-32.418h26.298
				v32.418H88.86L88.86,443.296z M133.854,410.878h32.418v32.418h-32.418V410.878z M133.854,382.341v-32.418h32.418v32.418H133.854
				L133.854,382.341z M194.808,410.878h32.428v32.418h-32.428V410.878L194.808,410.878z M194.808,382.341v-32.418h32.428v32.418
				H194.808L194.808,382.341z M255.771,349.923h15.437c5.259,9.994,8.937,20.826,10.665,32.418h-26.102V349.923L255.771,349.923z
				 M227.236,321.388h-32.428v-25.284c11.575,1.635,22.424,5.127,32.428,10.271V321.388z M166.274,321.388h-32.42v-15.028
				c10.004-5.129,20.845-8.621,32.418-10.254v25.282H166.274z M105.319,349.923v32.418H79.207
				c1.728-11.592,5.406-22.42,10.665-32.418H105.319z M133.854,471.831h32.418v27.141c-11.573-1.612-22.414-5.106-32.418-10.252
				V471.831z M194.808,471.831h32.428v16.887c-10.004,5.146-20.853,8.64-32.428,10.252V471.831L194.808,471.831z M255.771,443.296
				v-32.418h26.29c-1.505,11.535-4.831,22.402-9.837,32.418H255.771L255.771,443.296z M454.193,494.106
				c-22.329,0-40.425-18.094-40.425-40.424s18.098-40.425,40.425-40.425c22.33,0,40.427,18.095,40.427,40.425
				S476.523,494.106,454.193,494.106z M454.193,379.966c-22.329,0-40.425-18.098-40.425-40.426c0-22.33,18.098-40.424,40.425-40.424
				c22.33,0,40.427,18.094,40.427,40.424C494.62,361.868,476.523,379.966,454.193,379.966z"/>
		</g>
	</g>
</g>
<g>
</g>
<g>
</g>
<g>
</g>
<g>
</g>
<g>
</g>
<g>
</g>
<g>
</g>
<g>
</g>
<g>
</g>
<g>
</g>
<g>
</g>
<g>
</g>
<g>
</g>
<g>
</g>
<g>
</g>
</svg>
