<?xml version="1.0" encoding="iso-8859-1"?>
<!-- Generator: Adobe Illustrator 18.0.0, SVG Export Plug-In . SVG Version: 6.00 Build 0)  -->
<!DOCTYPE svg PUBLIC "-//W3C//DTD SVG 1.1//EN" "http://www.w3.org/Graphics/SVG/1.1/DTD/svg11.dtd">
<svg version="1.1" id="Capa_1" xmlns="http://www.w3.org/2000/svg" xmlns:xlink="http://www.w3.org/1999/xlink" x="0px" y="0px"
	 viewBox="0 0 440 440" style="enable-background:new 0 0 440 440;" xml:space="preserve">
<g>
	<path d="M440,283.557v-31h-69.481l-19.946-149.305c1.552-2.246,2.466-4.967,2.466-7.903c0-7.69-6.234-13.926-13.926-13.926
		c-7.691,0-13.926,6.235-13.926,13.926c0,2.937,0.914,5.657,2.466,7.903l-19.946,149.305H0v31h21v107.576h-8.5v29.168h415v-29.168
		H419V283.557H440z M339.113,119.451l6.469,48.425l-10.717-16.632L339.113,119.451z M108,391.133H52v-80.857h56V391.133z
		 M178,391.133h-56v-80.857h56V391.133z M248,391.133h-56v-80.857h56V391.133z M318,391.133h-56v-80.857h56V391.133z
		 M332.107,171.894l13.335,20.695l-21.432,39.914L332.107,171.894z M351.252,210.314l5.643,42.243h-28.327L351.252,210.314z
		 M388,391.133h-56v-80.857h56V391.133z"/>
	<path d="M294.804,101.504h8c0-20.021,16.289-36.311,36.31-36.311s36.31,16.289,36.31,36.311h8c0-24.433-19.877-44.31-44.31-44.31
		C314.681,57.193,294.804,77.071,294.804,101.504z"/>
	<path d="M339.113,27.699c39.149,0,71,31.851,71,71h8c0-43.561-35.439-79-79-79c-43.561,0-79,35.439-79,79h8
		C268.113,59.55,299.964,27.699,339.113,27.699z"/>
	<path d="M51.719,235.805h12.176l2.422,7.949h7.63l-11.834-33.535h-8.657l-11.788,33.535h7.63L51.719,235.805z M57.818,215.404
		c0.121,0.549,0.323,1.295,0.604,2.239c0.282,0.944,1.542,5.018,3.781,12.222H53.5C55.876,222.174,57.314,217.354,57.818,215.404z"
		/>
	<rect x="78.149" y="210.355" width="7.081" height="33.398"/>
	<path d="M100.72,230.939h3.77l7.973,12.814h7.858c-1.523-2.193-4.798-7.043-9.823-14.551c1.979-0.869,3.51-2.068,4.592-3.599
		c1.081-1.53,1.622-3.278,1.622-5.243c0-3.365-1.089-5.874-3.267-7.527c-2.179-1.652-5.536-2.479-10.075-2.479h-9.731v33.398h7.082
		V230.939z M100.72,216.158h2.147c2.283,0,3.971,0.336,5.06,1.006c1.089,0.67,1.634,1.797,1.634,3.381
		c0,1.599-0.533,2.771-1.6,3.518c-1.065,0.746-2.718,1.119-4.957,1.119h-2.284V216.158z"/>
</g>
<g>
</g>
<g>
</g>
<g>
</g>
<g>
</g>
<g>
</g>
<g>
</g>
<g>
</g>
<g>
</g>
<g>
</g>
<g>
</g>
<g>
</g>
<g>
</g>
<g>
</g>
<g>
</g>
<g>
</g>
</svg>
