<?xml version="1.0" encoding="iso-8859-1"?>
<!-- Generator: Adobe Illustrator 18.1.1, SVG Export Plug-In . SVG Version: 6.00 Build 0)  -->
<svg version="1.1" id="Capa_1" xmlns="http://www.w3.org/2000/svg" xmlns:xlink="http://www.w3.org/1999/xlink" x="0px" y="0px"
	 viewBox="0 0 89.471 89.471" style="enable-background:new 0 0 89.471 89.471;" xml:space="preserve">
<g>
	<g>
		<g>
			<path style="fill:#010002;" d="M87.682,52.477h-15.36l-1.174-26.841c0-0.741-0.601-1.342-1.342-1.342
				c-0.744,0-1.342,0.601-1.342,1.342L67.29,52.477h-65.5C0.805,52.477,0,53.286,0,54.266v14.315c0,0.981,0.805,1.789,1.789,1.789
				h5.368v2.684h10.737v-2.684h53.794v2.684h10.737v-2.684h5.257c0.984,0,1.789-0.809,1.789-1.789V54.266
				C89.471,53.286,88.666,52.477,87.682,52.477z M59.312,63.915c-1.381,0-2.494-1.117-2.494-2.491c0-1.381,1.117-2.494,2.494-2.494
				c1.374,0,2.491,1.117,2.491,2.494C61.807,62.802,60.687,63.915,59.312,63.915z M65.965,63.915c-1.385,0-2.494-1.117-2.494-2.491
				c0-1.381,1.117-2.494,2.494-2.494c1.378,0,2.487,1.117,2.487,2.494C68.453,62.802,67.34,63.915,65.965,63.915z M72.608,63.915
				c-1.374,0-2.494-1.117-2.494-2.491c0-1.381,1.12-2.494,2.494-2.494c1.378,0,2.491,1.117,2.491,2.494
				C75.099,62.802,73.986,63.915,72.608,63.915z M79.257,63.915c-1.381,0-2.494-1.117-2.494-2.491c0-1.381,1.117-2.494,2.494-2.494
				c1.371,0,2.491,1.117,2.491,2.494C81.752,62.802,80.628,63.915,79.257,63.915z"/>
		</g>
		<g>
			<path style="fill:#010002;" d="M61.939,33.258c-2.201-1.993-3.471-4.839-3.471-7.809s1.267-5.816,3.479-7.809l-1.109-1.224
				c-2.552,2.305-4.015,5.594-4.015,9.029c0,3.432,1.46,6.728,4.015,9.029L61.939,33.258z"/>
		</g>
		<g>
			<path style="fill:#010002;" d="M62.909,32.185l1.106-1.224c-1.557-1.41-2.448-3.414-2.448-5.511c0-2.094,0.891-4.105,2.448-5.511
				l-1.106-1.224c-1.904,1.714-2.992,4.173-2.992,6.735C59.917,28.012,61.005,30.463,62.909,32.185z"/>
		</g>
		<g>
			<path style="fill:#010002;" d="M65.117,29.733l1.109-1.224c-1.729-1.56-1.729-4.559,0-6.12l-1.109-1.224
				c-1.21,1.095-1.9,2.656-1.9,4.287C63.217,27.078,63.908,28.642,65.117,29.733z"/>
		</g>
		<g>
			<path style="fill:#010002;" d="M77.672,33.258l1.102,1.22c2.555-2.301,4.015-5.594,4.015-9.029s-1.46-6.725-4.015-9.029
				l-1.106,1.224c2.205,1.99,3.471,4.839,3.471,7.809C81.14,28.42,79.873,31.265,77.672,33.258z"/>
		</g>
		<g>
			<path style="fill:#010002;" d="M75.596,30.961l1.106,1.224c1.9-1.721,2.992-4.173,2.992-6.735s-1.092-5.018-2.992-6.735
				l-1.106,1.224c1.56,1.406,2.448,3.418,2.448,5.511C78.044,27.546,77.156,29.551,75.596,30.961z"/>
		</g>
		<g>
			<path style="fill:#010002;" d="M74.49,29.733c1.21-1.088,1.9-2.656,1.9-4.284c0-1.632-0.691-3.192-1.9-4.287l-1.109,1.224
				c1.732,1.56,1.732,4.559,0,6.12L74.49,29.733z"/>
		</g>
	</g>
</g>
<g>
</g>
<g>
</g>
<g>
</g>
<g>
</g>
<g>
</g>
<g>
</g>
<g>
</g>
<g>
</g>
<g>
</g>
<g>
</g>
<g>
</g>
<g>
</g>
<g>
</g>
<g>
</g>
<g>
</g>
</svg>
