<?xml version="1.0" encoding="iso-8859-1"?>
<!-- Generator: Adobe Illustrator 18.1.1, SVG Export Plug-In . SVG Version: 6.00 Build 0)  -->
<svg version="1.1" id="Capa_1" xmlns="http://www.w3.org/2000/svg" xmlns:xlink="http://www.w3.org/1999/xlink" x="0px" y="0px"
	 viewBox="0 0 16.58 16.58" style="enable-background:new 0 0 16.58 16.58;" xml:space="preserve">
<g>
	<g>
		<path style="fill:#030104;" d="M8.29,0C3.719,0,0,3.718,0,8.29s3.718,8.29,8.29,8.29s8.29-3.719,8.29-8.29S12.861,0,8.29,0z
			 M8.29,15.808c-4.146,0-7.519-3.373-7.519-7.519S4.144,0.77,8.29,0.77s7.519,3.373,7.519,7.519
			C15.809,12.435,12.436,15.808,8.29,15.808z"/>
		<path style="fill:#030104;" d="M15.145,7.258c-0.546,0-1.971,0-2.703,0c-0.238,0-0.393,0-0.393,0s0-0.569,0-0.927
			c0-0.357-0.268-0.088-0.268-0.088S9.769,7.759,9.558,7.97c-0.154,0.153,0.017,0.3,0.017,0.3l2.153,1.781
			c0,0,0.257,0.271,0.257-0.022c0-0.294,0-1.004,0-1.004s0.173,0,0.438,0c0.757,0,2.135,0,2.696,0c0,0,0.152,0.039,0.152-0.191
			c0-0.232,0-1.248,0-1.413C15.272,7.254,15.145,7.258,15.145,7.258z"/>
		<path style="fill:#030104;" d="M7.066,7.97C6.855,7.759,4.842,6.243,4.842,6.243S4.575,5.974,4.575,6.331s0,0.927,0,0.927
			s-0.155,0-0.393,0c-0.732,0-2.158,0-2.703,0c0,0-0.127-0.004-0.127,0.162c0,0.165,0,1.181,0,1.413c0,0.23,0.152,0.191,0.152,0.191
			c0.561,0,1.939,0,2.696,0c0.265,0,0.438,0,0.438,0s0,0.71,0,1.004c0,0.293,0.256,0.022,0.256,0.022l2.153-1.781
			C7.049,8.27,7.221,8.123,7.066,7.97z"/>
		<path style="fill:#030104;" d="M8.5,9.505C8.348,9.352,8.201,9.523,8.201,9.523L6.42,11.676c0,0-0.271,0.256,0.022,0.256
			c0.294,0,1.004,0,1.004,0s0,0.173,0,0.438c0,0.757,0,2.136,0,2.696c0,0-0.04,0.152,0.191,0.152c0.232,0,1.248,0,1.413,0
			c0.166,0,0.162-0.127,0.162-0.127c0-0.545,0-1.971,0-2.702c0-0.238,0-0.394,0-0.394s0.569,0,0.927,0
			c0.356,0,0.088-0.267,0.088-0.267S8.711,9.716,8.5,9.505z"/>
		<path style="fill:#030104;" d="M6.42,4.893l1.781,2.153c0,0,0.146,0.172,0.299,0.018c0.211-0.211,1.728-2.223,1.728-2.223
			s0.269-0.267-0.088-0.267s-0.927,0-0.927,0s0-0.155,0-0.393c0-0.732,0-2.157,0-2.703c0,0,0.004-0.127-0.162-0.127
			c-0.165,0-1.181,0-1.413,0c-0.231,0-0.191,0.152-0.191,0.152c0,0.561,0,1.939,0,2.696c0,0.265,0,0.438,0,0.438s-0.71,0-1.004,0
			C6.149,4.637,6.42,4.893,6.42,4.893z"/>
	</g>
</g>
<g>
</g>
<g>
</g>
<g>
</g>
<g>
</g>
<g>
</g>
<g>
</g>
<g>
</g>
<g>
</g>
<g>
</g>
<g>
</g>
<g>
</g>
<g>
</g>
<g>
</g>
<g>
</g>
<g>
</g>
</svg>
