<?xml version="1.0" encoding="iso-8859-1"?>
<!-- Generator: Adobe Illustrator 17.1.0, SVG Export Plug-In . SVG Version: 6.00 Build 0)  -->
<!DOCTYPE svg PUBLIC "-//W3C//DTD SVG 1.1//EN" "http://www.w3.org/Graphics/SVG/1.1/DTD/svg11.dtd">
<svg version="1.1" id="Capa_1" xmlns="http://www.w3.org/2000/svg" xmlns:xlink="http://www.w3.org/1999/xlink" x="0px" y="0px"
	 viewBox="0 0 455.034 455.034" style="enable-background:new 0 0 455.034 455.034;" xml:space="preserve">
<g>
	<path d="M250.679,441.841l-65.242-55.964c-0.006-0.005-0.012-0.011-0.019-0.016l-45.849-39.329v-63.298c0-4.142-3.357-7.5-7.5-7.5
		c-4.143,0-7.5,3.358-7.5,7.5v63.298L13.46,441.841c-3.145,2.697-3.507,7.432-0.81,10.575c2.696,3.143,7.431,3.508,10.575,0.81
		l61.222-52.516l40.121,21.33v25.494c0,4.142,3.357,7.5,7.5,7.5c4.143,0,7.5-3.358,7.5-7.5v-25.493l40.122-21.33l61.221,52.515
		c1.415,1.214,3.151,1.808,4.879,1.808c2.113,0,4.213-0.888,5.696-2.617C254.186,449.273,253.824,444.538,250.679,441.841z
		 M96.675,390.222l27.895-23.928v38.758L96.675,390.222z M139.57,405.052v-38.758l27.895,23.928L139.57,405.052z"/>
	<path d="M377.76,240.46c-0.001,0-0.003,0-0.004,0c-4.142,0.002-7.498,3.361-7.496,7.503c0.008,16.695-4.595,29.767-13.681,38.856
		c-0.001,0.001-0.002,0.002-0.003,0.003l-0.009,0.009c-15.832,15.821-43.947,18.068-79.166,6.329
		c-36.979-12.327-76.664-38.434-111.743-73.513c-35.079-35.079-61.187-74.763-73.513-111.743
		c-11.743-35.228-9.492-63.346,6.338-79.176c15.829-15.829,43.947-18.08,79.175-6.338c36.98,12.327,76.665,38.434,111.743,73.513
		c27.482,27.482,49.584,57.944,63.916,88.094c1.778,3.742,6.255,5.331,9.993,3.554c3.741-1.778,5.332-6.253,3.554-9.994
		c-15.059-31.679-38.177-63.583-66.855-92.261C263.315,48.602,221.547,21.208,182.401,8.16
		c-40.897-13.633-74.467-10.096-94.525,9.961c-0.007,0.007-0.013,0.014-0.02,0.021l-7.051,7.05
		C55.352,50.645,46.405,89.238,55.613,133.862c8.975,43.488,34.243,87.766,71.153,124.676
		c53.364,53.363,105.406,68.216,139.667,71.278c4.977,0.445,9.931,0.663,14.824,0.663c32.591,0,62.521-9.645,78.855-25.979
		l7.062-7.063c0.003-0.003,0.006-0.005,0.009-0.008c11.835-11.837,18.086-28.944,18.076-49.472
		C385.258,243.815,381.901,240.46,377.76,240.46z M267.768,314.875c-31.787-2.842-80.213-16.763-130.395-66.944
		c-54.597-54.597-79.437-123.323-67.35-173.05c0.791,11.65,3.406,24.308,7.891,37.766c13.049,39.146,40.442,80.913,77.136,117.606
		c36.694,36.694,78.461,64.088,117.607,77.137c9.757,3.252,19.092,5.519,27.931,6.826
		C290.595,315.577,279.571,315.93,267.768,314.875z"/>
	<path d="M441.995,141.3l-33.588-33.587c-2.93-2.929-7.678-2.929-10.607,0c-2.929,2.929-2.929,7.678,0,10.606l1.769,1.768
		l-15.91,15.909c-2.93,2.929-2.93,7.677-0.001,10.606c1.465,1.465,3.384,2.197,5.304,2.197c1.919,0,3.839-0.732,5.303-2.197
		l15.911-15.91l15.911,15.91L321.221,251.466c-2.929,2.929-2.929,7.678,0,10.606c1.465,1.464,3.385,2.197,5.304,2.197
		s3.839-0.732,5.304-2.197l110.166-110.166c1.406-1.406,2.196-3.314,2.196-5.303S443.401,142.706,441.995,141.3z"/>
</g>
<g>
</g>
<g>
</g>
<g>
</g>
<g>
</g>
<g>
</g>
<g>
</g>
<g>
</g>
<g>
</g>
<g>
</g>
<g>
</g>
<g>
</g>
<g>
</g>
<g>
</g>
<g>
</g>
<g>
</g>
</svg>
