<?xml version="1.0" encoding="iso-8859-1"?>
<!-- Generator: Adobe Illustrator 16.0.0, SVG Export Plug-In . SVG Version: 6.00 Build 0)  -->
<!DOCTYPE svg PUBLIC "-//W3C//DTD SVG 1.1//EN" "http://www.w3.org/Graphics/SVG/1.1/DTD/svg11.dtd">
<svg version="1.1" id="Capa_1" xmlns="http://www.w3.org/2000/svg" xmlns:xlink="http://www.w3.org/1999/xlink" x="0px" y="0px"
	 width="346.304px" height="346.304px" viewBox="0 0 346.304 346.304" style="enable-background:new 0 0 346.304 346.304;"
	 xml:space="preserve">
<g>
	<g>
		<g>
			<rect x="34.609" y="45.325" width="109.506" height="14.321"/>
		</g>
		<g>
			<rect x="34.609" y="91.007" width="109.506" height="14.312"/>
		</g>
		<g>
			<path d="M93.069,194.01c-13.964,0-25.329,11.367-25.329,25.334c0,13.962,11.364,25.322,25.329,25.322
				c13.958,0,25.334-11.366,25.334-25.322C118.403,205.371,107.027,194.01,93.069,194.01z M93.069,235.215
				c-8.77,0-15.865-7.098-15.865-15.871c0-8.772,7.095-15.87,15.865-15.87c8.767,0,15.876,7.098,15.876,15.87
				C108.945,228.111,101.836,235.215,93.069,235.215z"/>
		</g>
		<g>
			<path d="M342.063,61.887L183.939,0.205c-0.865-0.333-1.777-0.228-2.643,0.087c-0.252-0.051-0.48-0.156-0.774-0.156H5.612
				c-2.06,0-3.726,1.667-3.726,3.726v338.677c0,2.06,1.667,3.723,3.726,3.723h174.911c0.318,0,0.57-0.108,0.835-0.168
				c0.402,0.138,0.816,0.21,1.225,0.21c0.223,0,0.475-0.019,0.703-0.06l158.124-30.175c1.735-0.33,3.009-1.873,3.009-3.663V65.357
				C344.424,63.82,343.486,62.451,342.063,61.887z M93.069,257.793c-21.203,0-38.449-17.252-38.449-38.449
				c0-21.208,17.246-38.46,38.449-38.46c21.212,0,38.455,17.252,38.455,38.46C131.523,240.541,114.281,257.793,93.069,257.793z
				 M156.095,113.068c0,2.06-1.667,3.72-3.72,3.72H27.971c-2.06,0-3.726-1.667-3.726-3.72V84.507c0-2.048,1.667-3.714,3.726-3.714
				h124.404c2.06,0,3.72,1.666,3.72,3.714V113.068z M156.095,70.488H24.245V34.493h131.851V70.488z M336.978,309.326
				l-150.673,28.757V9.11l150.673,58.793V309.326z"/>
		</g>
	</g>
</g>
<g>
</g>
<g>
</g>
<g>
</g>
<g>
</g>
<g>
</g>
<g>
</g>
<g>
</g>
<g>
</g>
<g>
</g>
<g>
</g>
<g>
</g>
<g>
</g>
<g>
</g>
<g>
</g>
<g>
</g>
</svg>
