<?xml version="1.0" encoding="iso-8859-1"?>
<!-- Generator: Adobe Illustrator 16.0.0, SVG Export Plug-In . SVG Version: 6.00 Build 0)  -->
<!DOCTYPE svg PUBLIC "-//W3C//DTD SVG 1.1//EN" "http://www.w3.org/Graphics/SVG/1.1/DTD/svg11.dtd">
<svg version="1.1" id="Capa_1" xmlns="http://www.w3.org/2000/svg" xmlns:xlink="http://www.w3.org/1999/xlink" x="0px" y="0px"
	 width="369.955px" height="369.955px" viewBox="0 0 369.955 369.955" style="enable-background:new 0 0 369.955 369.955;"
	 xml:space="preserve">
<g>
	<g>
		<path d="M184.978,43.874c-60,0-111.484,36.963-133.039,89.276h139.669l-10.572-10.568c-5.206-5.209-5.206-13.646,0-18.852
			c5.209-5.209,13.646-5.209,18.852,0l33.327,33.321l0.023,0.018l9.403,9.416l-9.403,9.418l-0.023,0.019l-31.105,31.096
			c-2.605,2.605-6.005,3.909-9.428,3.909c-3.398,0-6.818-1.304-9.424-3.909c-5.209-5.209-5.209-13.646,0-18.846l8.344-8.343H46.598
			c-0.922,0-1.802-0.1-2.675-0.271c-1.82,9.124-2.816,18.549-2.816,28.205c0,79.324,64.54,143.863,143.866,143.863
			c57.034,0,106.273-33.429,129.523-81.653H178.49l10.572,10.574c5.206,5.212,5.206,13.649,0,18.85
			c-2.606,2.606-6.02,3.909-9.428,3.909c-3.405,0-6.818-1.303-9.425-3.909l-33.32-33.315c-0.006-0.012-0.006-0.023-0.006-0.023
			l-9.427-9.416l9.412-9.409c0,0,0.009-0.012,0.021-0.018l31.099-31.105c5.209-5.206,13.646-5.206,18.849,0
			c5.21,5.213,5.21,13.644,0,18.85l-8.346,8.353h145.013c0.239,0,0.468,0.061,0.696,0.066c2.93-11.403,4.647-23.305,4.647-35.621
			C328.847,108.42,264.308,43.874,184.978,43.874z"/>
		<path d="M184.978,0.003C82.821,0.003,0,82.821,0,184.981c0,102.147,82.821,184.971,184.978,184.971
			c102.16,0,184.978-82.824,184.978-184.971C369.955,82.815,287.138,0.003,184.978,0.003z M184.978,356.292
			c-92.927,0-168.536-75.613-168.536-168.537c0-92.93,75.609-168.536,168.536-168.536c92.942,0,168.537,75.612,168.537,168.536
			C353.521,280.679,277.92,356.292,184.978,356.292z"/>
	</g>
</g>
<g>
</g>
<g>
</g>
<g>
</g>
<g>
</g>
<g>
</g>
<g>
</g>
<g>
</g>
<g>
</g>
<g>
</g>
<g>
</g>
<g>
</g>
<g>
</g>
<g>
</g>
<g>
</g>
<g>
</g>
</svg>
