<?xml version="1.0" encoding="iso-8859-1"?>
<!-- Generator: Adobe Illustrator 18.1.1, SVG Export Plug-In . SVG Version: 6.00 Build 0)  -->
<svg version="1.1" id="Capa_1" xmlns="http://www.w3.org/2000/svg" xmlns:xlink="http://www.w3.org/1999/xlink" x="0px" y="0px"
	 viewBox="0 0 293.367 293.367" style="enable-background:new 0 0 293.367 293.367;" xml:space="preserve">
<g>
	<path style="fill:#010002;" d="M146.686,0C65.802,0,0,65.802,0,146.681s65.802,146.686,146.686,146.686
		s146.681-65.807,146.681-146.686S227.57,0,146.686,0z M146.686,271.893c-69.043,0-125.218-56.169-125.218-125.213
		c0-8.409,0.859-16.605,2.448-24.552c0.751,0.152,1.528,0.234,2.328,0.234h126.213l-7.267,7.272c-4.531,4.531-4.531,11.873,0,16.404
		c2.268,2.268,5.232,3.399,8.202,3.399c2.97,0,5.939-1.131,8.202-3.399l27.065-27.065c0,0,0.011-0.011,0.016-0.016l8.197-8.197
		l-8.197-8.197c0-0.011-0.011-0.011-0.011-0.011l-29.007-29.007c-4.531-4.531-11.873-4.531-16.41,0
		c-4.531,4.536-4.531,11.879,0,16.41l9.197,9.197H30.883c18.754-45.53,63.566-77.697,115.792-77.697
		c69.043,0,125.213,56.18,125.213,125.218c0,10.72-1.496,21.071-4.047,31.003c-0.207-0.011-0.402-0.065-0.609-0.065H141.029
		l7.267-7.267c4.531-4.531,4.531-11.873,0-16.41c-4.531-4.531-11.879-4.531-16.41,0l-27.07,27.07
		c-0.005,0.005-0.011,0.016-0.011,0.016l-8.197,8.197l8.197,8.197c0,0,0.005,0.005,0.011,0.016l29.001,28.996
		c2.268,2.268,5.232,3.399,8.202,3.399c2.97,0,5.934-1.131,8.202-3.399c4.531-4.531,4.531-11.873,0-16.404l-9.203-9.203H259.4
		C239.172,242.8,196.323,271.893,146.686,271.893z"/>
</g>
<g>
</g>
<g>
</g>
<g>
</g>
<g>
</g>
<g>
</g>
<g>
</g>
<g>
</g>
<g>
</g>
<g>
</g>
<g>
</g>
<g>
</g>
<g>
</g>
<g>
</g>
<g>
</g>
<g>
</g>
</svg>
