<?xml version="1.0" encoding="iso-8859-1"?>
<!-- Generator: Adobe Illustrator 18.0.0, SVG Export Plug-In . SVG Version: 6.00 Build 0)  -->
<!DOCTYPE svg PUBLIC "-//W3C//DTD SVG 1.1//EN" "http://www.w3.org/Graphics/SVG/1.1/DTD/svg11.dtd">
<svg version="1.1" id="Capa_1" xmlns="http://www.w3.org/2000/svg" xmlns:xlink="http://www.w3.org/1999/xlink" x="0px" y="0px"
	 viewBox="0 0 240.305 240.305" style="enable-background:new 0 0 240.305 240.305;" xml:space="preserve">
<path d="M169.274,156.029c-12.585-12.584-29.962-20.377-49.122-20.377c-19.162,0-36.539,7.793-49.123,20.377l-27.727-27.727
	c19.689-19.688,46.873-31.885,76.85-31.885c29.977,0,57.16,12.197,76.85,31.885L169.274,156.029z M88.711,173.711l31.441,31.441
	l31.441-31.441c-8.047-8.043-19.163-13.02-31.441-13.02C107.873,160.691,96.758,165.668,88.711,173.711z M120.152,74.383
	c36.053,0,68.746,14.664,92.424,38.346l27.729-27.727c-30.784-30.785-73.284-49.85-120.152-49.85
	C73.283,35.152,30.783,54.217,0,85.002l27.728,27.727C51.406,89.047,84.1,74.383,120.152,74.383z"/>
<g>
</g>
<g>
</g>
<g>
</g>
<g>
</g>
<g>
</g>
<g>
</g>
<g>
</g>
<g>
</g>
<g>
</g>
<g>
</g>
<g>
</g>
<g>
</g>
<g>
</g>
<g>
</g>
<g>
</g>
</svg>
